<mxfile host="app.diagrams.net" modified="2022-02-28T23:46:04.932Z" agent="5.0 (X11)" etag="LIW_-e8c97wFKNtm2wTD" version="16.6.4" type="github">
  <diagram id="v5qhJ7hs3gcvQsynXfmO" name="Page-1">
    <mxGraphModel dx="1102" dy="565" grid="1" gridSize="10" guides="1" tooltips="1" connect="1" arrows="1" fold="1" page="1" pageScale="1" pageWidth="827" pageHeight="1169" math="0" shadow="0">
      <root>
        <mxCell id="0" />
        <mxCell id="1" parent="0" />
        <mxCell id="uMlyJ9u_k0-5jP6iLL9K-1" value="&lt;div&gt;Test&lt;/div&gt;&lt;div&gt;&lt;br&gt;&lt;/div&gt;" style="whiteSpace=wrap;html=1;aspect=fixed;" vertex="1" parent="1">
          <mxGeometry x="350" y="220" width="80" height="80" as="geometry" />
        </mxCell>
      </root>
    </mxGraphModel>
  </diagram>
</mxfile>
